<?xml version="1.0" encoding="UTF-8" standalone="no"?><!DOCTYPE svg PUBLIC "-//W3C//DTD SVG 1.1//EN" "http://www.w3.org/Graphics/SVG/1.1/DTD/svg11.dtd"><svg width="100%" height="100%" viewBox="0 0 260 260" version="1.1" xmlns="http://www.w3.org/2000/svg" xmlns:xlink="http://www.w3.org/1999/xlink" xml:space="preserve" xmlns:serif="http://www.serif.com/" style="fill-rule:evenodd;clip-rule:evenodd;stroke-linejoin:round;stroke-miterlimit:1.41421;"><rect id="ArtBoard1" x="0" y="0" width="260" height="260" style="fill:none;"/><g id="ArtBoard11" serif:id="ArtBoard1"><g><path d="M194.561,79.65c-35.653,35.544 -60.193,80.196 -70.964,129.131l19.977,4.397c9.927,-45.101 32.552,-86.266 65.427,-119.042c11.162,-11.127 23.42,-21.127 36.438,-29.723l-11.272,-17.069c-14.155,9.349 -27.479,20.217 -39.606,32.306" style="fill:#fff;fill-opacity:0.14902;fill-rule:nonzero;"/><path d="M173.717,65.565c-47.026,46.885 -76.088,108.973 -81.834,174.833l20.376,1.778c5.327,-61.063 32.282,-118.641 75.898,-162.125c4.456,-4.44 9.118,-8.759 13.856,-12.839l-13.342,-15.502c-5.115,4.403 -10.147,9.063 -14.954,13.855" style="fill:#fff;fill-opacity:0.14902;fill-rule:nonzero;"/><path d="M152.723,51.48c-37.042,36.928 -63.958,82.964 -77.841,133.127l19.713,5.454c12.94,-46.753 38.032,-89.665 72.568,-124.095c14.738,-14.693 31.073,-27.67 48.555,-38.572l-10.825,-17.356c-18.789,11.718 -36.342,25.662 -52.17,41.442" style="fill:#fff;fill-opacity:0.14902;fill-rule:nonzero;"/><path d="M37.679,259.681l20.454,0.319c1.164,-74.72 30.04,-145.991 81.306,-200.687l-14.924,-13.986c-54.752,58.412 -85.592,134.537 -86.836,214.354" style="fill:#fff;fill-opacity:0.14902;fill-rule:nonzero;"/><path d="M111.688,23.312c-53.187,53.023 -86.772,120.227 -97.127,194.345l20.258,2.827c9.732,-69.663 41.306,-132.837 91.31,-182.687c7.729,-7.706 15.925,-15.073 24.356,-21.9l-12.871,-15.897c-8.977,7.268 -17.7,15.111 -25.926,23.312" style="fill:#fff;fill-opacity:0.14902;fill-rule:nonzero;"/></g></g></svg>
