<?xml version="1.0" encoding="UTF-8" standalone="no"?>
<!-- Created with Inkscape (http://www.inkscape.org/) -->
<svg
   xmlns:dc="http://purl.org/dc/elements/1.1/"
   xmlns:cc="http://creativecommons.org/ns#"
   xmlns:rdf="http://www.w3.org/1999/02/22-rdf-syntax-ns#"
   xmlns:svg="http://www.w3.org/2000/svg"
   xmlns="http://www.w3.org/2000/svg"
   xmlns:sodipodi="http://sodipodi.sourceforge.net/DTD/sodipodi-0.dtd"
   xmlns:inkscape="http://www.inkscape.org/namespaces/inkscape"
   width="1027.5591"
   height="892.91339"
   id="svg3569"
   sodipodi:version="0.32"
   inkscape:version="0.46"
   version="1.0"
   sodipodi:docname="PROSOZ_Herten_Logo.svg"
   inkscape:output_extension="org.inkscape.output.svg.inkscape">
  <defs
     id="defs3571">
    <inkscape:perspective
       sodipodi:type="inkscape:persp3d"
       inkscape:vp_x="0 : 526.18109 : 1"
       inkscape:vp_y="0 : 1000 : 0"
       inkscape:vp_z="744.09448 : 526.18109 : 1"
       inkscape:persp3d-origin="372.04724 : 350.78739 : 1"
       id="perspective3577" />
  </defs>
  <sodipodi:namedview
     id="base"
     pagecolor="#ffffff"
     bordercolor="#666666"
     borderopacity="1.0"
     inkscape:pageopacity="0.0"
     inkscape:pageshadow="2"
     inkscape:zoom="0.5"
     inkscape:cx="350"
     inkscape:cy="520"
     inkscape:document-units="cm"
     inkscape:current-layer="layer1"
     showgrid="false"
     units="cm"
     inkscape:window-width="1440"
     inkscape:window-height="850"
     inkscape:window-x="-8"
     inkscape:window-y="-8" />
  <metadata
     id="metadata3574">
    <rdf:RDF>
      <cc:Work
         rdf:about="">
        <dc:format>image/svg+xml</dc:format>
        <dc:type
           rdf:resource="http://purl.org/dc/dcmitype/StillImage" />
      </cc:Work>
    </rdf:RDF>
  </metadata>
  <g
     inkscape:label="Ebene 1"
     inkscape:groupmode="layer"
     id="layer1"
     transform="translate(-99.254246,213.18799)">
    <g
       id="g3348"
       transform="matrix(29.828353,0,0,22.942194,-2472.1176,-1584.0126)">
      <path
         id="path2510"
         style="fill:#FFFFFF;fill-opacity:.15;fill-rule:nonzero;stroke:none"
         d="M 112.98391,71.559993 C 107.65641,76.858743 103.98766,83.512493 102.37891,90.802493 L 105.36391,91.458743 C 106.84641,84.737493 110.22766,78.602493 115.14141,73.719993 C 116.81016,72.061243 118.64141,70.572493 120.58766,69.289993 L 118.90266,66.748743 C 116.78766,68.139993 114.79641,69.758743 112.98391,71.559993" />
      <path
         id="path2512"
         style="fill:#FFFFFF;fill-opacity:.15;fill-rule:nonzero;stroke:none"
         d="M 109.94141,69.451243 C 102.90641,76.432493 98.560163,85.671243 97.701413,95.469993 L 100.75016,95.733743 C 101.54516,86.648743 105.57766,78.079993 112.10141,71.607493 C 112.76641,70.949993 113.46516,70.304993 114.17141,69.697493 L 112.17516,67.392493 C 111.41266,68.047493 110.65891,68.739993 109.94141,69.451243" />
      <path
         id="path2514"
         style="fill:#FFFFFF;fill-opacity:.15;fill-rule:nonzero;stroke:none"
         d="M 106.79391,67.406243 C 101.26641,72.907493 97.248913,79.761243 95.176413,87.232493 L 98.120163,88.046243 C 100.05016,81.082493 103.79641,74.692493 108.94891,69.564993 C 111.14891,67.376243 113.58641,65.443743 116.19391,63.821243 L 114.58016,61.236243 C 111.77516,62.979993 109.15641,65.057493 106.79391,67.406243" />
      <path
         id="path2516"
         style="fill:#FFFFFF;fill-opacity:.15;fill-rule:nonzero;stroke:none"
         d="M 89.697663,98.314993 L 92.760163,98.362493 C 92.931413,87.253743 97.255163,76.658743 104.92766,68.526243 L 102.69266,66.446243 C 94.498913,75.129993 89.882663,86.448743 89.697663,98.314993" />
      <path
         id="path2518"
         style="fill:#FFFFFF;fill-opacity:.15;fill-rule:nonzero;stroke:none"
         d="M 100.76891,63.216243 C 92.830163,71.101243 87.817663,81.091243 86.272663,92.112493 L 89.296413,92.532493 C 90.750163,82.173743 95.461413,72.783743 102.92391,65.371243 C 104.07891,64.223743 105.30141,63.126243 106.56016,62.113743 L 104.63766,59.751243 C 103.29766,60.831243 101.99641,61.996243 100.76891,63.216243" />
    </g>
  </g>
</svg>
